<svg width="1137" height="1003" viewBox="0 0 1137 1003" fill="none" xmlns="http://www.w3.org/2000/svg">
<rect width="1137" height="1003" fill="#E5E5E5"/>
<g id="undraw_shopping_app_flsj 1">
<g id="body">
<path id="Vector" d="M468.495 236.022H463.333V86.5248C463.333 75.1622 461.216 63.9108 457.102 53.4131C452.989 42.9154 446.959 33.377 439.359 25.3424C431.758 17.3079 422.735 10.9345 412.804 6.58623C402.873 2.23797 392.229 -3.55482e-05 381.48 4.23499e-10H81.853C71.1039 -3.55482e-05 60.46 2.23797 50.5292 6.58623C40.5983 10.9345 31.5749 17.3079 23.9742 25.3424C16.3734 33.377 10.3441 42.9155 6.23064 53.4131C2.11715 63.9108 -1.68145e-05 75.1622 1.00185e-10 86.5248V906.676C-1.00887e-05 918.038 2.11717 929.29 6.23066 939.787C10.3442 950.285 16.3734 959.823 23.9742 967.858C31.5749 975.893 40.5983 982.266 50.5292 986.614C60.46 990.963 71.1039 993.201 81.853 993.201H381.48C392.229 993.201 402.873 990.963 412.804 986.614C422.735 982.266 431.758 975.893 439.359 967.858C446.959 959.823 452.989 950.285 457.102 939.787C461.216 929.29 463.333 918.038 463.333 906.676V342.436H468.495V236.022Z" fill="#E6E6E6"/>
<path id="Vector_2" d="M384.783 22.5107H345.671C347.47 27.1721 348.157 32.2295 347.671 37.2374C347.185 42.2453 345.541 47.05 342.885 51.2283C340.228 55.4066 336.641 58.8302 332.438 61.1975C328.235 63.5648 323.546 64.8032 318.783 64.8036H147.131C142.368 64.8032 137.679 63.5648 133.476 61.1975C129.273 58.8302 125.686 55.4066 123.029 51.2283C120.373 47.05 118.729 42.2453 118.243 37.2374C117.757 32.2295 118.444 27.1721 120.243 22.5107H83.7126C75.6854 22.5107 67.7367 24.182 60.3204 27.4293C52.9042 30.6765 46.1657 35.4361 40.4895 41.4362C34.8134 47.4363 30.3108 54.5595 27.2389 62.399C24.167 70.2385 22.5859 78.6409 22.5858 87.1263V906.074C22.5858 914.56 24.167 922.962 27.2389 930.801C30.3108 938.641 34.8133 945.764 40.4895 951.764C46.1656 957.764 52.9042 962.524 60.3204 965.771C67.7367 969.018 75.6854 970.69 83.7126 970.69H384.783C392.81 970.69 400.759 969.018 408.175 965.771C415.591 962.524 422.33 957.764 428.006 951.764C433.682 945.764 438.185 938.641 441.257 930.801C444.328 922.962 445.909 914.56 445.909 906.074V87.1263C445.909 78.6409 444.328 70.2385 441.257 62.399C438.185 54.5595 433.682 47.4363 428.006 41.4362C422.33 35.4361 415.591 30.6765 408.175 27.4293C400.759 24.182 392.81 22.5107 384.783 22.5107V22.5107Z" fill="white"/>
<path id="Vector_3" d="M145.547 188.994H127.571C126.939 188.994 126.333 189.259 125.886 189.732C125.439 190.204 125.188 190.845 125.188 191.513V199.854C125.188 200.522 125.439 201.163 125.886 201.635C126.333 202.108 126.939 202.373 127.571 202.373H130.55V214.87H142.568V202.373H145.547C146.179 202.373 146.785 202.108 147.232 201.635C147.679 201.163 147.93 200.522 147.93 199.854V191.513C147.93 190.845 147.679 190.204 147.232 189.732C146.785 189.259 146.179 188.994 145.547 188.994V188.994Z" fill="#E6E6E6"/>
<path id="Vector_4" d="M163.552 265.326C152.543 248.298 146.915 228.023 147.474 207.406C147.484 206.93 147.338 206.465 147.06 206.091C146.783 205.716 146.392 205.454 145.952 205.35V201.746H126.967V205.3H126.706C126.189 205.3 125.694 205.518 125.329 205.905C124.964 206.291 124.76 206.815 124.76 207.362C124.76 207.412 124.762 207.462 124.766 207.512C126.261 229.551 121.211 249.315 109.614 266.805C108.947 267.81 108.606 269.016 108.643 270.244L110.718 338.123C110.768 339.637 111.369 341.072 112.396 342.129C113.423 343.186 114.797 343.782 116.23 343.794H159.171C160.62 343.782 162.008 343.172 163.038 342.094C164.068 341.016 164.659 339.555 164.686 338.023L165.486 272.118C165.509 269.699 164.835 267.33 163.552 265.326Z" fill="#E6E6E6"/>
<path id="Vector_5" d="M156.754 287.874H119.377C118.824 287.874 118.277 288 117.774 288.245C117.271 288.489 116.825 288.845 116.464 289.289C116.104 289.733 115.839 290.254 115.687 290.816C115.535 291.379 115.5 291.969 115.584 292.547L121.232 331.356H153.665L160.526 292.678C160.63 292.092 160.61 291.489 160.469 290.912C160.327 290.335 160.067 289.798 159.707 289.34C159.347 288.881 158.895 288.512 158.385 288.258C157.875 288.005 157.318 287.874 156.754 287.874V287.874Z" fill="white"/>
<path id="Vector_6" d="M345.654 392.335H327.678C327.046 392.335 326.44 392.6 325.993 393.072C325.546 393.545 325.295 394.186 325.295 394.854V403.194C325.295 403.863 325.546 404.503 325.993 404.976C326.44 405.448 327.046 405.714 327.678 405.714H330.657V418.211H342.675V405.714H345.654C346.286 405.714 346.892 405.448 347.339 404.976C347.786 404.503 348.037 403.863 348.037 403.194V394.854C348.037 394.186 347.786 393.545 347.339 393.072C346.892 392.6 346.286 392.335 345.654 392.335Z" fill="#E6E6E6"/>
<path id="Vector_7" d="M363.659 468.667C352.65 451.639 347.022 431.363 347.581 410.747C347.591 410.271 347.445 409.806 347.168 409.431C346.89 409.057 346.499 408.795 346.06 408.69V405.087H327.075V408.64H326.813C326.557 408.641 326.304 408.694 326.068 408.798C325.832 408.902 325.617 409.054 325.436 409.245C325.256 409.437 325.112 409.664 325.015 409.914C324.917 410.164 324.867 410.432 324.868 410.702C324.868 410.752 324.869 410.802 324.873 410.852C326.369 432.891 321.318 452.656 309.721 470.145C309.054 471.15 308.713 472.357 308.75 473.584L310.826 541.464C310.876 542.978 311.477 544.413 312.504 545.47C313.531 546.526 314.904 547.123 316.337 547.135H359.278C360.728 547.123 362.115 546.512 363.145 545.434C364.175 544.356 364.767 542.896 364.793 541.364L365.593 475.459C365.616 473.04 364.942 470.67 363.659 468.667V468.667Z" fill="#E6E6E6"/>
<path id="Vector_8" d="M356.861 491.214H319.484C318.931 491.214 318.384 491.341 317.881 491.585C317.379 491.829 316.932 492.186 316.572 492.63C316.211 493.074 315.946 493.595 315.794 494.157C315.642 494.719 315.607 495.31 315.691 495.888L321.34 534.697H353.772L360.633 496.019C360.737 495.433 360.717 494.83 360.576 494.253C360.434 493.676 360.174 493.139 359.814 492.68C359.454 492.222 359.003 491.853 358.492 491.599C357.982 491.346 357.425 491.214 356.861 491.214H356.861Z" fill="white"/>
<path id="Vector_9" d="M120.275 679.799H111.748C111.448 679.799 111.161 679.924 110.949 680.149C110.737 680.373 110.618 680.677 110.618 680.994V684.95C110.618 685.267 110.737 685.571 110.949 685.795C111.161 686.019 111.448 686.145 111.748 686.145H113.161V692.073H118.862V686.145H120.275C120.575 686.145 120.862 686.019 121.074 685.795C121.286 685.571 121.405 685.267 121.405 684.95V680.994C121.405 680.677 121.286 680.373 121.074 680.149C120.862 679.924 120.575 679.799 120.275 679.799Z" fill="#E6E6E6"/>
<path id="Vector_10" d="M128.815 716.007C123.593 707.929 120.924 698.312 121.189 688.532C121.194 688.307 121.124 688.086 120.993 687.908C120.861 687.731 120.676 687.606 120.467 687.557V685.847H111.462V687.533H111.338C111.216 687.533 111.096 687.559 110.984 687.608C110.872 687.657 110.77 687.729 110.685 687.82C110.599 687.911 110.531 688.019 110.485 688.137C110.439 688.256 110.415 688.383 110.415 688.511C110.415 688.535 110.416 688.559 110.417 688.582C111.249 698.561 108.702 708.528 103.23 716.708C102.914 717.185 102.752 717.757 102.77 718.339L103.754 750.537C103.778 751.256 104.063 751.936 104.55 752.438C105.037 752.939 105.689 753.222 106.368 753.228H126.737C127.425 753.222 128.083 752.932 128.572 752.421C129.06 751.909 129.341 751.217 129.353 750.49L129.733 719.228C129.744 718.081 129.424 716.957 128.815 716.007V716.007Z" fill="#E6E6E6"/>
<path id="Vector_11" d="M125.884 727.842H106.449V738.115H125.884V727.842Z" fill="white"/>
<path id="Vector_12" d="M159.967 679.799H151.441C151.141 679.799 150.853 679.924 150.641 680.149C150.429 680.373 150.31 680.677 150.31 680.994V684.95C150.31 685.267 150.429 685.571 150.641 685.795C150.853 686.019 151.141 686.145 151.441 686.145H152.854V692.073H158.554V686.145H159.967C160.267 686.145 160.555 686.019 160.767 685.795C160.979 685.571 161.098 685.267 161.098 684.95V680.994C161.098 680.677 160.979 680.373 160.767 680.149C160.555 679.924 160.267 679.799 159.967 679.799Z" fill="#E6E6E6"/>
<path id="Vector_13" d="M168.508 716.007C163.286 707.929 160.616 698.312 160.882 688.532C160.886 688.307 160.817 688.086 160.685 687.908C160.554 687.731 160.368 687.606 160.16 687.557V685.847H151.154V687.533H151.03C150.909 687.533 150.789 687.559 150.677 687.608C150.565 687.657 150.463 687.729 150.377 687.82C150.292 687.911 150.224 688.019 150.177 688.137C150.131 688.256 150.107 688.383 150.108 688.511C150.108 688.535 150.108 688.559 150.11 688.582C150.941 698.561 148.394 708.528 142.923 716.708C142.606 717.185 142.445 717.757 142.462 718.339L143.447 750.537C143.47 751.256 143.756 751.936 144.243 752.438C144.73 752.939 145.381 753.222 146.061 753.228H166.43C167.118 753.222 167.776 752.932 168.264 752.421C168.753 751.909 169.033 751.217 169.046 750.49L169.425 719.228C169.437 718.081 169.117 716.957 168.508 716.007Z" fill="#E6E6E6"/>
<path id="Vector_14" d="M165.576 727.842H146.141V738.115H165.576V727.842Z" fill="white"/>
<path id="Vector_15" d="M199.66 679.799H191.133C190.833 679.799 190.546 679.924 190.334 680.149C190.122 680.373 190.003 680.677 190.003 680.994V684.95C190.003 685.267 190.122 685.571 190.334 685.795C190.546 686.019 190.833 686.145 191.133 686.145H192.546V692.073H198.247V686.145H199.66C199.96 686.145 200.247 686.019 200.459 685.795C200.671 685.571 200.79 685.267 200.79 684.95V680.994C200.79 680.677 200.671 680.373 200.459 680.149C200.247 679.924 199.96 679.799 199.66 679.799Z" fill="#E6E6E6"/>
<path id="Vector_16" d="M208.201 716.007C202.979 707.929 200.309 698.312 200.574 688.532C200.579 688.307 200.51 688.086 200.378 687.908C200.246 687.731 200.061 687.606 199.852 687.557V685.847H190.847V687.533H190.723C190.602 687.533 190.481 687.559 190.369 687.608C190.257 687.657 190.156 687.729 190.07 687.82C189.984 687.911 189.916 688.019 189.87 688.137C189.824 688.256 189.8 688.383 189.8 688.511C189.8 688.535 189.801 688.559 189.803 688.582C190.634 698.561 188.087 708.528 182.616 716.708C182.299 717.185 182.137 717.757 182.155 718.339L183.139 750.537C183.163 751.256 183.448 751.936 183.935 752.438C184.422 752.939 185.074 753.222 185.754 753.228H206.123C206.81 753.222 207.468 752.932 207.957 752.421C208.446 751.909 208.726 751.217 208.738 750.49L209.118 719.228C209.129 718.081 208.809 716.957 208.201 716.007Z" fill="#E6E6E6"/>
<path id="Vector_17" d="M205.269 727.842H185.834V738.115H205.269V727.842Z" fill="white"/>
<path id="Vector_18" d="M314.426 601.134H296.45C296.137 601.134 295.827 601.199 295.538 601.326C295.249 601.452 294.986 601.638 294.764 601.872C294.543 602.106 294.368 602.384 294.248 602.689C294.128 602.995 294.066 603.322 294.066 603.653V611.994C294.066 612.662 294.318 613.303 294.764 613.775C295.211 614.248 295.818 614.513 296.45 614.513H299.429V627.01H311.447V614.513H314.426C315.058 614.513 315.664 614.248 316.111 613.775C316.558 613.303 316.809 612.662 316.809 611.994V603.653C316.809 603.322 316.747 602.995 316.627 602.689C316.508 602.384 316.332 602.106 316.111 601.872C315.89 601.638 315.627 601.452 315.338 601.326C315.049 601.199 314.739 601.134 314.426 601.134V601.134Z" fill="#E6E6E6"/>
<path id="Vector_19" d="M332.431 677.467C321.421 660.438 315.793 640.163 316.353 619.546C316.363 619.07 316.217 618.606 315.939 618.231C315.662 617.856 315.27 617.594 314.831 617.49V613.886H295.846V617.44H295.585C295.329 617.44 295.076 617.494 294.839 617.598C294.603 617.702 294.389 617.853 294.208 618.045C294.027 618.236 293.884 618.464 293.787 618.714C293.689 618.964 293.639 619.231 293.639 619.502C293.639 619.552 293.641 619.602 293.645 619.652C295.14 641.691 290.09 661.455 278.493 678.945C277.826 679.95 277.485 681.157 277.521 682.384L279.597 750.263C279.647 751.777 280.248 753.212 281.275 754.269C282.302 755.326 283.676 755.922 285.109 755.935H328.05C329.499 755.922 330.887 755.312 331.917 754.234C332.947 753.156 333.538 751.695 333.564 750.163L334.364 684.258C334.388 681.839 333.713 679.47 332.431 677.467Z" fill="#E6E6E6"/>
<path id="Vector_20" d="M325.633 700.014H288.256C287.703 700.014 287.156 700.14 286.653 700.385C286.15 700.629 285.704 700.985 285.343 701.429C284.983 701.873 284.718 702.394 284.566 702.956C284.414 703.519 284.379 704.109 284.463 704.687L290.111 743.496H322.544L329.404 704.818C329.508 704.232 329.489 703.629 329.347 703.052C329.206 702.475 328.946 701.939 328.586 701.48C328.226 701.021 327.774 700.652 327.264 700.399C326.754 700.145 326.197 700.014 325.633 700.014V700.014Z" fill="white"/>
<path id="Vector_21" d="M324.239 352.533H217.085C224.577 309.717 222.853 258.016 217.085 202.416H324.239C318.625 258.017 316.947 309.718 324.239 352.533Z" fill="#E6E6E6"/>
<path id="Vector_22" d="M271.308 300.674C285.568 300.674 297.128 288.454 297.128 273.38C297.128 258.306 285.568 246.086 271.308 246.086C257.048 246.086 245.487 258.306 245.487 273.38C245.487 288.454 257.048 300.674 271.308 300.674Z" fill="white"/>
<path id="Vector_23" d="M226.122 551.779H118.968C126.46 508.964 124.736 457.263 118.968 401.662H226.122C220.508 457.263 218.83 508.964 226.122 551.779Z" fill="#E6E6E6"/>
<path id="Vector_24" d="M173.191 499.921C187.451 499.921 199.011 487.701 199.011 472.627C199.011 457.553 187.451 445.333 173.191 445.333C158.93 445.333 147.37 457.553 147.37 472.627C147.37 487.701 158.93 499.921 173.191 499.921Z" fill="white"/>
<path id="Vector_25" d="M384.917 362.086H277.763C285.254 319.27 283.531 267.569 277.763 211.968H384.917C379.302 267.569 377.625 319.27 384.917 362.086Z" fill="#E6E6E6"/>
<path id="Vector_26" d="M331.985 310.227C346.245 310.227 357.806 298.007 357.806 282.933C357.806 267.859 346.245 255.639 331.985 255.639C317.725 255.639 306.165 267.859 306.165 282.933C306.165 298.007 317.725 310.227 331.985 310.227Z" fill="white"/>
<path id="Vector_27" d="M384.917 355.262H277.763C285.254 312.447 283.531 260.746 277.763 205.145H384.917C379.302 260.746 377.625 312.447 384.917 355.262Z" fill="#E6E6E6"/>
<path id="Vector_28" d="M331.985 303.404C346.245 303.404 357.806 291.184 357.806 276.109C357.806 261.035 346.245 248.815 331.985 248.815C317.725 248.815 306.165 261.035 306.165 276.109C306.165 291.184 317.725 303.404 331.985 303.404Z" fill="white"/>
<path id="Vector_29" d="M384.917 362.086H277.763C285.254 319.27 283.531 267.569 277.763 211.968H384.917C379.302 267.569 377.625 319.27 384.917 362.086Z" fill="#E6E6E6"/>
<path id="Vector_30" d="M331.985 310.227C346.245 310.227 357.806 298.007 357.806 282.933C357.806 267.859 346.245 255.639 331.985 255.639C317.725 255.639 306.165 267.859 306.165 282.933C306.165 298.007 317.725 310.227 331.985 310.227Z" fill="white"/>
<path id="Vector_31" d="M409.446 344.345H58.2903V385.286H409.446V344.345Z" fill="#E6E6E6"/>
<path id="Vector_32" d="M409.446 547.685H58.2903V588.626H409.446V547.685Z" fill="#E6E6E6"/>
<path id="Vector_33" d="M409.446 751.026H58.2903V791.967H409.446V751.026Z" fill="#E6E6E6"/>
<path id="Vector_34" d="M598.285 618.65H588.682C588.345 618.65 588.021 618.792 587.782 619.044C587.543 619.296 587.409 619.639 587.409 619.996V624.451C587.409 624.628 587.442 624.803 587.506 624.966C587.57 625.13 587.664 625.278 587.782 625.403C587.9 625.528 588.041 625.627 588.195 625.695C588.35 625.762 588.515 625.797 588.682 625.797H590.274V632.473H596.694V625.797H598.285C598.623 625.797 598.947 625.655 599.186 625.403C599.424 625.151 599.558 624.808 599.558 624.451V619.996C599.558 619.639 599.424 619.296 599.186 619.044C598.947 618.792 598.623 618.65 598.285 618.65V618.65Z" fill="#E6E6E6"/>
<path id="Vector_35" opacity="0.2" d="M596.283 620.102C596.283 620.872 595.994 621.61 595.479 622.155C594.964 622.699 594.265 623.005 593.537 623.005C592.808 623.005 592.109 622.699 591.594 622.155C591.079 621.61 590.79 620.872 590.79 620.102" fill="black"/>
<path id="Vector_36" d="M412.602 444.575L436.657 442.263L451.965 402.966L424.63 386.784L412.602 444.575Z" fill="#FFB8B8"/>
<path id="Vector_37" d="M394.013 969.323H415.882L470.124 710.085L526.318 790.169L559.12 963.544H579.895L575.522 777.455L502.262 578.652H430.096C410.375 616.379 394.905 655.27 412.602 695.391L394.013 969.323Z" fill="#2F2E41"/>
<path id="Vector_38" d="M545.715 985.069C545.473 985.887 545.399 986.75 545.497 987.6C545.595 988.451 545.864 989.27 546.285 990.002C546.706 990.734 547.27 991.363 547.939 991.847C548.608 992.331 549.367 992.659 550.165 992.808L603.677 1002.85C605.791 1003.26 607.975 1002.83 609.814 1001.66C611.654 1000.48 613.024 998.637 613.665 996.468V996.468C614.289 994.395 614.202 992.157 613.419 990.145C612.636 988.134 611.208 986.479 609.386 985.47C597.619 979.084 587.493 969.777 579.875 958.348C573.993 964.137 567.42 963.593 560.439 959.327L553.035 960.305L545.715 985.069Z" fill="#2F2E41"/>
<path id="Vector_39" d="M383.888 985.069C383.646 985.887 383.572 986.75 383.67 987.6C383.769 988.451 384.037 989.27 384.458 990.002C384.879 990.734 385.443 991.363 386.112 991.847C386.781 992.331 387.54 992.659 388.338 992.808L441.851 1002.85C443.965 1003.26 446.148 1002.83 447.988 1001.66C449.828 1000.48 451.198 998.637 451.839 996.468V996.468C452.462 994.395 452.375 992.157 451.593 990.145C450.81 988.134 449.382 986.479 447.559 985.47C435.793 979.084 425.667 969.777 418.048 958.348C412.167 964.137 405.593 963.593 398.613 959.327L391.209 960.305L383.888 985.069Z" fill="#2F2E41"/>
<path id="Vector_40" d="M452.512 417.413C469.42 417.413 483.127 402.924 483.127 385.05C483.127 367.176 469.42 352.687 452.512 352.687C435.603 352.687 421.896 367.176 421.896 385.05C421.896 402.924 435.603 417.413 452.512 417.413Z" fill="#FFB8B8"/>
<path id="Vector_41" d="M425.176 587.32L504.996 585.009L481.554 507.021C496.122 482.335 481.461 457.673 460.712 433.017L444.311 421.459L418.069 419.147C406.707 431.998 400.49 448.999 400.72 466.587C401.24 504.25 407.549 545.25 425.176 587.32Z" fill="#575A89"/>
<path id="Vector_42" d="M402.214 372.336C402.214 384.928 409.951 404.43 419.709 412.79C426.275 418.414 434.952 418.178 438.297 410.478C441.729 402.58 453.559 384.014 474.38 372.336C502.136 356.767 464.537 330.132 438.297 334.193C418.579 337.245 402.214 351.27 402.214 372.336Z" fill="#2F2E41"/>
<path id="Vector_43" d="M420.802 354.998C432.88 354.998 442.671 344.649 442.671 331.882C442.671 319.115 432.88 308.765 420.802 308.765C408.725 308.765 398.934 319.115 398.934 331.882C398.934 344.649 408.725 354.998 420.802 354.998Z" fill="#2F2E41"/>
<path id="Vector_44" d="M445.951 323.791C445.949 317.963 443.863 312.351 440.112 308.08C436.36 303.81 431.221 301.195 425.723 300.762C426.266 300.719 426.809 300.674 427.363 300.674C433.163 300.674 438.725 303.11 442.826 307.445C446.927 311.78 449.231 317.66 449.231 323.791C449.231 329.922 446.927 335.801 442.826 340.137C438.725 344.472 433.163 346.907 427.363 346.907C426.809 346.907 426.266 346.863 425.723 346.82C431.221 346.386 436.36 343.772 440.112 339.501C443.863 335.23 445.949 329.619 445.951 323.791Z" fill="#2F2E41"/>
<path id="Vector_45" d="M453.058 396.608C455.776 396.608 457.979 393.503 457.979 389.673C457.979 385.843 455.776 382.738 453.058 382.738C450.341 382.738 448.138 385.843 448.138 389.673C448.138 393.503 450.341 396.608 453.058 396.608Z" fill="#FFB8B8"/>
</g>
<g id="hand-other">
<path id="Vector_46" d="M607.904 659.428C602.023 650.331 599.016 639.5 599.315 628.486C599.32 628.232 599.242 627.983 599.094 627.783C598.946 627.583 598.737 627.443 598.502 627.387V625.462H588.36V627.361H588.22C588.084 627.361 587.948 627.39 587.822 627.445C587.696 627.5 587.581 627.582 587.485 627.684C587.388 627.786 587.312 627.908 587.26 628.041C587.208 628.175 587.181 628.318 587.181 628.462C587.181 628.489 587.182 628.516 587.184 628.542C588.12 639.781 585.252 651.006 579.09 660.217C578.733 660.754 578.551 661.399 578.571 662.055L579.68 698.317C579.706 699.126 580.027 699.892 580.576 700.457C581.125 701.021 581.858 701.34 582.624 701.346H605.564C606.338 701.34 607.079 701.014 607.629 700.438C608.18 699.862 608.496 699.082 608.51 698.263L608.937 663.056C608.95 661.764 608.589 660.498 607.904 659.428V659.428Z" fill="#6C63FF"/>
<path id="Vector_47" d="M603.436 666.414H584.071V680.061H603.436V666.414Z" fill="white"/>
<path id="Vector_48" d="M608.566 639.815C610.086 638.209 611.223 636.244 611.884 634.082C612.545 631.92 612.71 629.623 612.366 627.381C612.022 625.138 611.179 623.014 609.906 621.183C608.634 619.353 606.968 617.868 605.046 616.852L571.584 599.156L559.334 614.641L590.529 640.892C593.136 643.085 596.415 644.188 599.742 643.989C603.068 643.791 606.209 642.305 608.566 639.815V639.815Z" fill="#FFB8B8"/>
<path id="Vector_49" d="M568.414 631.242L581.535 597.723L510.471 550.359L480.547 452.545C478.99 447.456 475.741 443.136 471.402 440.385C467.063 437.634 461.927 436.639 456.947 437.584V437.584C453.932 438.156 451.072 439.421 448.57 441.29C446.068 443.159 443.985 445.586 442.468 448.4C440.951 451.213 440.037 454.345 439.791 457.573C439.545 460.801 439.972 464.046 441.043 467.08L463.992 552.068L568.414 631.242Z" fill="#575A89"/>
</g>
<g id="cart">
<path id="Vector_50" d="M1020.3 917.122L932.813 851.714C962.319 821.331 989.154 778.069 1014.82 729.154L1102.3 794.562C1067.34 836.529 1037.73 877.715 1020.3 917.122Z" fill="#6C63FF"/>
<path id="Vector_51" d="M1020.32 847.484C1034.58 847.484 1046.14 835.264 1046.14 820.19C1046.14 805.115 1034.58 792.896 1020.32 792.896C1006.06 792.896 994.501 805.115 994.501 820.19C994.501 835.264 1006.06 847.484 1020.32 847.484Z" fill="white"/>
<path id="Vector_52" d="M902.177 760.311H884.201C883.569 760.311 882.962 760.576 882.516 761.049C882.069 761.521 881.818 762.162 881.818 762.83V771.171C881.818 771.839 882.069 772.48 882.516 772.952C882.962 773.425 883.569 773.69 884.201 773.69H887.18V786.187H899.198V773.69H902.177C902.809 773.69 903.415 773.425 903.862 772.952C904.309 772.48 904.56 771.839 904.56 771.171V762.83C904.56 762.162 904.309 761.521 903.862 761.049C903.415 760.576 902.809 760.311 902.177 760.311V760.311Z" fill="#E6E6E6"/>
<path id="Vector_53" d="M920.182 836.643C909.173 819.615 903.545 799.34 904.104 778.723C904.114 778.247 903.968 777.782 903.69 777.408C903.413 777.033 903.022 776.771 902.582 776.667V773.063H883.597V776.617H883.336C883.08 776.617 882.827 776.671 882.59 776.774C882.354 776.878 882.14 777.03 881.959 777.222C881.778 777.413 881.635 777.64 881.538 777.89C881.44 778.14 881.39 778.408 881.39 778.678C881.39 778.729 881.392 778.778 881.396 778.828C882.891 800.868 877.841 820.632 866.244 838.121C865.577 839.127 865.236 840.333 865.273 841.561L867.348 909.44C867.398 910.954 867.999 912.389 869.026 913.446C870.053 914.503 871.427 915.099 872.86 915.111H915.801C917.25 915.099 918.638 914.489 919.668 913.411C920.698 912.332 921.289 910.872 921.316 909.34L922.115 843.435C922.139 841.016 921.465 838.647 920.182 836.643V836.643Z" fill="#6C63FF"/>
<path id="Vector_54" opacity="0.2" d="M898.429 763.029C898.429 764.47 897.888 765.852 896.923 766.872C895.959 767.891 894.651 768.464 893.288 768.464C891.924 768.464 890.616 767.891 889.652 766.872C888.688 765.852 888.146 764.47 888.146 763.029" fill="black"/>
<path id="Vector_55" d="M913.384 859.191H876.007C875.454 859.191 874.907 859.317 874.404 859.561C873.901 859.806 873.455 860.162 873.094 860.606C872.734 861.05 872.469 861.571 872.317 862.133C872.165 862.696 872.13 863.286 872.214 863.864L877.862 902.673H910.295L917.156 863.995C917.259 863.409 917.24 862.806 917.098 862.229C916.957 861.652 916.697 861.115 916.337 860.657C915.977 860.198 915.525 859.829 915.015 859.576C914.505 859.322 913.948 859.191 913.384 859.191V859.191Z" fill="white"/>
<path id="Vector_56" d="M850.888 917.015H743.734C751.226 874.2 749.502 822.499 743.734 766.898H850.888C845.274 822.499 843.596 874.2 850.888 917.015Z" fill="#6C63FF"/>
<path id="Vector_57" d="M797.957 865.156C812.217 865.156 823.777 852.936 823.777 837.862C823.777 822.788 812.217 810.568 797.957 810.568C783.697 810.568 772.136 822.788 772.136 837.862C772.136 852.936 783.697 865.156 797.957 865.156Z" fill="white"/>
<path id="Vector_58" d="M1072.66 926.929H732.237L660.149 566.697H598.627V550.534H672.543L744.631 910.765H1072.66V926.929Z" fill="#3F3D56"/>
<path id="Vector_59" d="M782.124 992.74C800.221 992.74 814.891 977.232 814.891 958.103C814.891 938.973 800.221 923.465 782.124 923.465C764.027 923.465 749.357 938.973 749.357 958.103C749.357 977.232 764.027 992.74 782.124 992.74Z" fill="#3F3D56"/>
<path id="Vector_60" d="M1026.79 992.74C1044.88 992.74 1059.55 977.232 1059.55 958.103C1059.55 938.973 1044.88 923.465 1026.79 923.465C1008.69 923.465 994.02 938.973 994.02 958.103C994.02 977.232 1008.69 992.74 1026.79 992.74Z" fill="#3F3D56"/>
<path id="Vector_61" d="M1066.45 919.317H735.241L676.802 614.036H1121.3C1123.56 614.036 1125.81 614.555 1127.87 615.559C1129.93 616.562 1131.76 618.025 1133.23 619.847C1134.7 621.669 1135.79 623.807 1136.4 626.114C1137.02 628.421 1137.16 630.842 1136.81 633.21L1081.97 905.295C1081.4 909.21 1079.52 912.779 1076.67 915.353C1073.83 917.927 1070.2 919.334 1066.45 919.317V919.317ZM738.838 914.699H1066.45C1069.16 914.711 1071.78 913.696 1073.83 911.838C1075.88 909.98 1077.24 907.404 1077.65 904.578L1132.49 632.493C1132.75 630.784 1132.65 629.036 1132.2 627.371C1131.76 625.706 1130.97 624.163 1129.91 622.847C1128.85 621.532 1127.52 620.476 1126.04 619.752C1124.55 619.028 1122.93 618.654 1121.3 618.654H682.105L738.838 914.699Z" fill="#3F3D56"/>
<path id="Vector_62" d="M799.63 918.34L761.358 616.721L765.668 615.968L803.94 917.588L799.63 918.34Z" fill="#3F3D56"/>
<path id="Vector_63" d="M1012.43 916.024L1008.12 915.285L1045.27 615.975L1049.59 616.714L1012.43 916.024Z" fill="#3F3D56"/>
<path id="Vector_64" d="M911.043 616.345H906.674V917.964H911.043V616.345Z" fill="#3F3D56"/>
<path id="Vector_65" d="M699.119 697.166L699.108 701.784L1122.02 702.867L1122.03 698.248L699.119 697.166Z" fill="#3F3D56"/>
<path id="Vector_66" d="M1092.19 839.831L720.65 842.516L720.68 847.135L1092.22 844.45L1092.19 839.831Z" fill="#3F3D56"/>
</g>
<g id="hand-cart">
<path id="Vector_67" d="M633.366 552.459C634.166 550.35 634.48 548.07 634.283 545.808C634.086 543.546 633.383 541.366 632.232 539.447C631.082 537.528 629.516 535.926 627.665 534.772C625.813 533.618 623.729 532.946 621.584 532.811L584.234 530.456L578.735 549.787L617.184 560.949C620.397 561.882 623.822 561.532 626.807 559.966C629.791 558.4 632.126 555.728 633.366 552.459V552.459Z" fill="#FFB8B8"/>
<path id="Vector_68" d="M593.261 561.274L592.85 525.001L509.889 511.008L445.977 433.524C442.652 429.492 438.057 426.872 433.044 426.147C428.031 425.422 422.939 426.643 418.712 429.583C416.153 431.363 413.994 433.715 412.39 436.474C410.785 439.232 409.773 442.33 409.425 445.547C409.078 448.765 409.403 452.024 410.378 455.094C411.353 458.164 412.954 460.97 415.068 463.314L467.794 531.906L593.261 561.274Z" fill="#575A89"/>
<path id="Vector_69" d="M605.181 570.161C618.452 570.161 629.21 563.958 629.21 556.306C629.21 548.654 618.452 542.451 605.181 542.451C591.909 542.451 581.151 548.654 581.151 556.306C581.151 563.958 591.909 570.161 605.181 570.161Z" fill="#3F3D56"/>
</g>
</g>
</svg>
